<?xml version="1.0" encoding="UTF-8" standalone="no"?>
<svg
   xmlns:dc="http://purl.org/dc/elements/1.1/"
   xmlns:cc="http://creativecommons.org/ns#"
   xmlns:rdf="http://www.w3.org/1999/02/22-rdf-syntax-ns#"
   xmlns:svg="http://www.w3.org/2000/svg"
   xmlns="http://www.w3.org/2000/svg"
   xmlns:sodipodi="http://sodipodi.sourceforge.net/DTD/sodipodi-0.dtd"
   xmlns:inkscape="http://www.inkscape.org/namespaces/inkscape"
   version="1.1"
   id="svg2"
   xml:space="preserve"
   width="600"
   height="600"
   viewBox="0 0 600 600"
   sodipodi:docname="2010.i606.001..online medicine set-08.eps"><metadata
     id="metadata8"><rdf:RDF><cc:Work
         rdf:about=""><dc:format>image/svg+xml</dc:format><dc:type
           rdf:resource="http://purl.org/dc/dcmitype/StillImage" /></cc:Work></rdf:RDF></metadata><defs
     id="defs6"><clipPath
       clipPathUnits="userSpaceOnUse"
       id="clipPath22"><path
         d="m 3488.31,2242.93 c 0,-762.71 -618.31,-1381.008 -1381.02,-1381.008 -762.71,0 -1381.013,618.298 -1381.013,1381.008 0,762.72 618.303,1381.02 1381.013,1381.02 762.71,0 1381.02,-618.3 1381.02,-1381.02 z"
         id="path20" /></clipPath></defs><sodipodi:namedview
     pagecolor="#ffffff"
     bordercolor="#666666"
     borderopacity="1"
     objecttolerance="10"
     gridtolerance="10"
     guidetolerance="10"
     inkscape:pageopacity="0"
     inkscape:pageshadow="2"
     inkscape:window-width="640"
     inkscape:window-height="480"
     id="namedview4" /><g
     id="g10"
     inkscape:groupmode="layer"
     inkscape:label="ink_ext_XXXXXX"
     transform="matrix(1.3333333,0,0,-1.3333333,0,600)"><g
       id="g12"
       transform="scale(0.1)"><path
         d="m 3488.31,2242.93 c 0,-762.71 -618.31,-1381.008 -1381.02,-1381.008 -762.71,0 -1381.013,618.298 -1381.013,1381.008 0,762.72 618.303,1381.02 1381.013,1381.02 762.71,0 1381.02,-618.3 1381.02,-1381.02"
         style="fill:#fcd9d9;fill-opacity:1;fill-rule:nonzero;stroke:none"
         id="path14" /><g
         id="g16"><g
           id="g18"
           clip-path="url(#clipPath22)"><path
             d="m 2855.16,1849.29 h 750.42 c 12.09,0 21.88,-9.8 21.88,-21.89 v -447.78 c 0,-12.08 -9.79,-21.88 -21.88,-21.88 h -750.42 c -12.09,0 -21.89,9.8 -21.89,21.88 v 447.78 c 0,12.09 9.8,21.89 21.89,21.89"
             style="fill:#ea9292;fill-opacity:1;fill-rule:nonzero;stroke:none"
             id="path24" /><path
             d="m 3462.71,1929.28 0.69,-159.99 h -124.7 v 81.39 c 0,0 52,2.49 80.66,23.12 28.44,20.46 43.35,55.48 43.35,55.48"
             style="fill:#ea9292;fill-opacity:1;fill-rule:nonzero;stroke:none"
             id="path26" /><path
             d="m 3909.63,2757.34 v -150.48 c 0,-39.93 -32.34,-72.27 -72.27,-72.27 h -441.21 v -64.35 h 233.64 c 39.93,0 72.27,-32.34 72.27,-72.27 v -150.15 c 0,-39.93 -32.34,-72.27 -72.27,-72.27 h -233.64 v -94.05 c 0,-39.93 -32.34,-72.27 -72.27,-72.27 h -649.77 c -39.93,0 -72.27,32.34 -72.27,72.27 v 1244.43 c 0,39.93 32.34,72.27 72.27,72.27 h 649.77 c 39.93,0 72.27,-32.34 72.27,-72.27 v -496.65 h 441.21 c 39.93,0 72.27,-32.01 72.27,-71.94"
             style="fill:#ea9292;fill-opacity:1;fill-rule:nonzero;stroke:none"
             id="path28" /><path
             d="m 2876.4,2009.23 v -1.32 c 0,0 -52.14,-2.64 -80.85,-23.1 -28.38,-20.46 -43.23,-55.44 -43.23,-55.44 l -0.33,79.86 h 124.41"
             style="fill:#ea9292;fill-opacity:1;fill-rule:nonzero;stroke:none"
             id="path30" /><path
             d="m 1681.79,2192.75 0.7,159.99 h -124.7 v -81.38 c 0,0 52,-2.5 80.65,-23.12 28.44,-20.46 43.35,-55.49 43.35,-55.49"
             style="fill:#ea9292;fill-opacity:1;fill-rule:nonzero;stroke:none"
             id="path32" /><path
             d="m 1960.8,2271.36 h -517.44 c -12.38,0 -22.42,10.03 -22.42,22.41 v 387.51 c 0,12.38 10.04,22.41 22.42,22.41 h 517.43 c 12.39,0 22.42,-10.03 22.42,-22.42 v -387.5 c 0,-12.38 -10.03,-22.41 -22.41,-22.41"
             style="fill:#ea9292;fill-opacity:1;fill-rule:nonzero;stroke:none"
             id="path34" /><path
             d="m 1494.92,2687.19 c -31.71,0 -57.49,-25.78 -57.49,-57.47 v -284.38 c 0,-31.7 25.78,-57.48 57.49,-57.48 h 414.31 c 31.71,0 57.49,25.78 57.49,57.48 v 284.38 c 0,31.69 -25.78,57.47 -57.49,57.47 z m 414.31,-432.33 h -414.31 c -49.89,0 -90.49,40.59 -90.49,90.48 v 284.38 c 0,49.89 40.6,90.47 90.49,90.47 h 414.31 c 49.89,0 90.49,-40.58 90.49,-90.47 v -284.38 c 0,-49.89 -40.6,-90.48 -90.49,-90.48"
             style="fill:#ea9292;fill-opacity:1;fill-rule:nonzero;stroke:none"
             id="path36" /><path
             d="m 2853.63,1176.81 -128.34,-41.57 -52.58,-3.31 -19.73,-0.33 c 0.35,2.98 0.35,6.94 0,11.89 -4.49,0.98 -7.95,2.96 -9.68,5.94 -7.61,12.21 -30.44,60.05 -52.24,105.92 0,0.33 -0.34,0.66 -0.69,1 21.1,-45.88 47.74,-102.96 57.77,-124.75 l -639.3,-5.94 -12.11,237.93 20.41,250.15 c 5.54,0.32 103.78,50.15 180.24,89.75 h 0.34 c 27.33,14.19 52.24,27.07 68.85,35.31 13.14,7.26 21.45,11.55 21.45,11.55 l -8.31,24.09 c -20.41,-3.63 -25.6,-5.28 -45.32,-5.28 -61.92,-0.66 -127.65,47.85 -154.29,100.65 -22.49,44.23 -42.2,92.41 -57.77,134.31 -3.81,10.56 -7.27,20.79 -10.72,30.36 -3.81,10.24 -7.27,19.8 -10.04,28.38 -42.2,16.18 -52.23,45.88 -52.23,45.88 0,0 -57.78,5.27 -64.35,55.76 -6.57,50.49 51.2,75.91 51.2,75.91 0,0 -9,110.88 104.82,152.79 190.96,70.61 248.39,-53.8 248.39,-53.8 0,0 35.63,50.82 102.75,35.31 67.45,-15.18 84.4,-124.74 66.76,-184.8 -4.84,-16.5 -13.49,-31.02 -24.56,-43.23 8.3,0.33 16.95,-1.32 25.6,-5.94 6.92,-3.62 13.84,-9.57 20.41,-17.49 42.9,-53.13 3.46,-91.4 -16.26,-103.94 -20.06,-12.55 -42.21,-16.84 -42.21,-16.84 0,0 15.92,-59.73 9.69,-102.29 -6.92,-43.57 -30.79,-64.69 -49.82,-74.58 l 22.49,-60.07 c 0,0 31.83,-17.49 76.11,-42.24 l 0.34,-0.32 c 89.26,-49.84 228.68,-129.7 253.58,-155.11 5.89,-5.93 12.8,-18.8 21.11,-37.62 19.02,-44.88 40.47,-117.81 58.11,-180.83 4.5,-16.18 8.65,-31.35 12.46,-45.55 2.42,-8.91 4.49,-17.49 6.57,-25.07 6.57,-24.1 11.07,-42.25 13.49,-49.51 4.5,-14.52 6.58,-34.64 7.61,-52.47"
             style="fill:#ea9292;fill-opacity:1;fill-rule:nonzero;stroke:none"
             id="path38" /><path
             d="m 2496.9,3588.94 v -710.82 c 0,-39.6 -32.34,-71.94 -72.27,-71.94 h -913.44 c -39.93,0 -72.27,32.34 -72.27,71.94 v 345.84 h -256.08 c -13.53,0 -24.42,-10.89 -24.42,-24.42 v -56.76 c 97.68,-31.02 168.63,-122.76 168.63,-231 0,-108.24 -70.95,-199.98 -168.63,-231.33 v -163.68 c 97.68,-31.02 168.63,-122.76 168.63,-231 0,-108.24 -70.95,-199.98 -168.63,-231 v -164.01 c 97.68,-31.02 168.63,-122.76 168.63,-231 0,-133.98 -108.57,-242.55 -242.55,-242.55 -133.98,0 -242.551,108.57 -242.551,242.55 0,108.24 70.949,199.98 168.631,231 v 164.01 c -97.682,31.02 -168.631,122.76 -168.631,231 0,108.24 70.949,199.98 168.631,231 v 163.68 c -97.682,31.35 -168.631,123.09 -168.631,231.33 0,108.24 70.949,199.98 168.631,231 v 160.05 c 0,38.28 31.02,69.3 69.3,69.3 h 359.04 v 216.81 c 0,39.93 32.34,72.27 72.27,72.27 h 913.44 c 39.93,0 72.27,-32.34 72.27,-72.27"
             style="fill:#ea9292;fill-opacity:1;fill-rule:nonzero;stroke:none"
             id="path40" /><path
             d="m 1079.88,3355.64 c -29.1,0 -52.79,-23.69 -52.79,-52.81 v -172.12 l -11.5,-3.66 c -93.981,-29.84 -157.145,-116.35 -157.145,-215.27 0,-98.81 63.164,-185.45 157.175,-215.61 l 11.47,-3.67 v -187.8 l -11.5,-3.66 c -93.981,-29.85 -157.145,-116.36 -157.145,-215.28 0,-98.9 63.164,-185.41 157.145,-215.27 l 11.5,-3.66 v -188.14 l -11.5,-3.65 c -93.981,-29.85 -157.145,-116.36 -157.145,-215.28 0,-124.65 101.391,-226.05 226.035,-226.05 124.66,0 226.07,101.4 226.07,226.05 0,98.92 -63.13,185.43 -157.13,215.28 l -11.51,3.65 v 188.14 l 11.51,3.66 c 93.97,29.86 157.13,116.37 157.13,215.27 0,98.92 -63.13,185.43 -157.13,215.28 l -11.51,3.66 v 187.8 l 11.47,3.67 c 94.01,30.16 157.17,116.8 157.17,215.61 0,98.92 -63.13,185.43 -157.13,215.27 l -11.51,3.66 v 68.84 c 0,22.56 18.37,40.91 40.93,40.91 h 272.58 v -362.34 c 0,-30.57 25.04,-55.45 55.78,-55.45 h 913.43 c 30.74,0 55.78,24.88 55.78,55.45 v 710.82 c 0,30.75 -25.04,55.77 -55.78,55.77 H 1511.2 c -30.74,0 -55.78,-25.02 -55.78,-55.77 v -233.3 z m 4.6,-1954.93 c -142.824,0 -259.035,116.21 -259.035,259.05 0,109.28 67.258,205.35 168.645,242.78 v 140.44 c -101.387,37.45 -168.645,133.52 -168.645,242.78 0,109.28 67.258,205.35 168.645,242.78 v 140.17 c -101.352,37.74 -168.645,133.94 -168.645,243.07 0,109.28 67.258,205.35 168.645,242.78 v 148.27 c 0,47.31 38.48,85.81 85.79,85.81 h 342.53 v 200.3 c 0,48.95 39.83,88.77 88.79,88.77 h 913.43 c 48.95,0 88.78,-39.82 88.78,-88.77 v -710.82 c 0,-48.78 -39.83,-88.45 -88.78,-88.45 H 1511.2 c -48.96,0 -88.79,39.67 -88.79,88.45 v 329.34 h -239.57 c -4.45,0 -7.93,-3.48 -7.93,-7.91 v -44.99 c 101.39,-37.43 168.64,-133.5 168.64,-242.78 0,-109.13 -67.28,-205.33 -168.64,-243.07 v -140.17 c 101.39,-37.43 168.64,-133.5 168.64,-242.78 0,-109.26 -67.25,-205.33 -168.64,-242.78 v -140.44 c 101.39,-37.43 168.64,-133.5 168.64,-242.78 0,-142.84 -116.2,-259.05 -259.07,-259.05"
             style="fill:#ea9292;fill-opacity:1;fill-rule:nonzero;stroke:none"
             id="path42" /></g></g><path
         d="m 3506.08,1916.58 h -92.2 l -0.34,79.98 c 0,0 -14.91,-35.01 -43.35,-55.47 -28.66,-20.63 -80.66,-23.13 -80.66,-23.13 v -1.38 h -433.21 c -39.89,0 -72.22,-32.34 -72.22,-72.22 v -347.12 c 0,-39.88 32.33,-72.21 72.22,-72.21 h 649.76 c 39.88,0 72.22,32.33 72.22,72.21 v 347.12 c 0,39.88 -32.34,72.22 -72.22,72.22"
         style="fill:#fcf9f9;fill-opacity:1;fill-rule:nonzero;stroke:none"
         id="path44" /><path
         d="m 3148.96,1665.69 c 0,-78.75 -63.84,-142.59 -142.59,-142.59 -78.75,0 -142.59,63.84 -142.59,142.59 0,78.75 63.84,142.59 142.59,142.59 78.75,0 142.59,-63.84 142.59,-142.59"
         style="fill:#fcf9f9;fill-opacity:1;fill-rule:nonzero;stroke:none"
         id="path46" /><path
         d="m 3006.38,1795.9 c -71.8,0 -130.23,-58.41 -130.23,-130.21 0,-71.8 58.43,-130.21 130.23,-130.21 71.81,0 130.2,58.41 130.2,130.21 0,71.8 -58.39,130.21 -130.2,130.21 z m 0,-285.17 c -85.46,0 -154.98,69.51 -154.98,154.96 0,85.45 69.52,154.96 154.98,154.96 85.43,0 154.95,-69.51 154.95,-154.96 0,-85.45 -69.52,-154.96 -154.95,-154.96"
         style="fill:#939aa0;fill-opacity:1;fill-rule:nonzero;stroke:none"
         id="path48" /><path
         d="m 3149,1665.69 c 0,-78.67 -63.89,-142.57 -142.67,-142.57 -78.67,0 -142.57,63.9 -142.57,142.57 H 3149"
         style="fill:#fcf9f9;fill-opacity:1;fill-rule:nonzero;stroke:none"
         id="path50" /><path
         d="m 2876.73,1653.32 c 6.25,-66.02 61.97,-117.82 129.59,-117.82 67.67,0 123.49,51.8 129.74,117.82 z m 129.59,-142.57 c -85.44,0 -154.92,69.51 -154.92,154.94 v 12.38 h 309.99 v -12.38 c 0,-85.43 -69.58,-154.94 -155.07,-154.94"
         style="fill:#939aa0;fill-opacity:1;fill-rule:nonzero;stroke:none"
         id="path52" /><path
         d="m 3511.99,1665.69 c 0,-78.67 -63.9,-142.57 -142.68,-142.57 -78.67,0 -142.56,63.9 -142.56,142.57 h 285.24"
         style="fill:#fcf9f9;fill-opacity:1;fill-rule:nonzero;stroke:none"
         id="path54" /><path
         d="m 3239.7,1653.32 c 6.26,-66.02 62,-117.82 129.62,-117.82 67.67,0 123.46,51.8 129.71,117.82 z m 129.62,-142.57 c -85.44,0 -154.95,69.51 -154.95,154.94 0,6.83 5.54,12.38 12.38,12.38 h 285.23 c 6.84,0 12.38,-5.55 12.38,-12.38 0,-85.43 -69.55,-154.94 -155.04,-154.94"
         style="fill:#939aa0;fill-opacity:1;fill-rule:nonzero;stroke:none"
         id="path56" /><path
         d="m 3289.52,1917.96 h 0.33 z m -361.35,-505.31 h -71.87 c -46.63,0 -84.56,37.95 -84.56,84.59 v 347.12 c 0,46.64 37.93,84.59 84.56,84.59 h 427.97 c 1.42,0.79 3,1.29 4.64,1.37 0.48,0.03 48.76,2.61 74.06,20.8 25.17,18.11 39.06,49.99 39.19,50.31 2.28,5.38 8.15,8.39 13.82,7.25 5.77,-1.16 9.89,-6.2 9.93,-12.07 l 0.29,-67.66 h 79.89 c 46.63,0 84.59,-37.95 84.59,-84.59 v -126.65 c 0,-6.84 -5.54,-12.38 -12.37,-12.38 -6.84,0 -12.38,5.54 -12.38,12.38 v 126.65 c 0,33 -26.84,59.84 -59.84,59.84 h -92.21 c -6.79,0 -12.34,5.51 -12.37,12.33 l -0.16,37.33 c -6.61,-8.04 -14.6,-16.1 -23.94,-22.83 -25.95,-18.67 -67.42,-23.8 -82.05,-25.06 -1.74,-1.11 -3.74,-1.77 -5.84,-1.77 H 2856.3 c -32.97,0 -59.81,-26.84 -59.81,-59.84 v -347.12 c 0,-33 26.84,-59.84 59.81,-59.84 h 71.87 c 6.83,0 12.37,-5.54 12.37,-12.38 0,-6.83 -5.54,-12.37 -12.37,-12.37"
         style="fill:#939aa0;fill-opacity:1;fill-rule:nonzero;stroke:none"
         id="path58" /><path
         d="m 3578.31,1537.46 c -6.84,0 -12.38,5.55 -12.38,12.38 v 27.97 c 0,6.83 5.54,12.38 12.38,12.38 6.83,0 12.37,-5.55 12.37,-12.38 v -27.97 c 0,-6.83 -5.54,-12.38 -12.37,-12.38"
         style="fill:#939aa0;fill-opacity:1;fill-rule:nonzero;stroke:none"
         id="path60" /><path
         d="m 3506.09,1412.65 h -61.4 c -6.83,0 -12.37,5.54 -12.37,12.37 0,6.84 5.54,12.38 12.37,12.38 h 61.4 c 33,0 59.84,26.84 59.84,59.84 0,6.84 5.54,12.38 12.38,12.38 6.83,0 12.37,-5.54 12.37,-12.38 0,-46.64 -37.96,-84.59 -84.59,-84.59"
         style="fill:#939aa0;fill-opacity:1;fill-rule:nonzero;stroke:none"
         id="path62" /><path
         d="M 3838.44,2602.03 H 2753.08 c -12.08,0 -21.88,9.8 -21.88,21.89 v 250.92 c 0,12.09 9.8,21.89 21.88,21.89 h 1085.36 c 12.09,0 21.89,-9.8 21.89,-21.89 v -250.92 c 0,-12.09 -9.8,-21.89 -21.89,-21.89"
         style="fill:#fcf9f9;fill-opacity:1;fill-rule:nonzero;stroke:none"
         id="path64" /><path
         d="m 3110.06,2744.46 c 0,-17.63 -14.3,-31.92 -31.93,-31.92 -17.63,0 -31.92,14.29 -31.92,31.92 0,17.63 14.29,31.92 31.92,31.92 17.63,0 31.93,-14.29 31.93,-31.92"
         style="fill:#939aa0;fill-opacity:1;fill-rule:nonzero;stroke:none"
         id="path66" /><path
         d="m 3320.69,2744.46 c 0,-17.63 -14.29,-31.92 -31.92,-31.92 -17.63,0 -31.92,14.29 -31.92,31.92 0,17.63 14.29,31.92 31.92,31.92 17.63,0 31.92,-14.29 31.92,-31.92"
         style="fill:#939aa0;fill-opacity:1;fill-rule:nonzero;stroke:none"
         id="path68" /><path
         d="m 3531.33,2744.46 c 0,-17.63 -14.29,-31.92 -31.92,-31.92 -17.63,0 -31.92,14.29 -31.92,31.92 0,17.63 14.29,31.92 31.92,31.92 17.63,0 31.92,-14.29 31.92,-31.92"
         style="fill:#939aa0;fill-opacity:1;fill-rule:nonzero;stroke:none"
         id="path70" /><path
         d="m 3741.97,2744.46 c 0,-17.63 -14.29,-31.92 -31.92,-31.92 -17.63,0 -31.92,14.29 -31.92,31.92 0,17.63 14.29,31.92 31.92,31.92 17.63,0 31.92,-14.29 31.92,-31.92"
         style="fill:#939aa0;fill-opacity:1;fill-rule:nonzero;stroke:none"
         id="path72" /><path
         d="m 3788.1,2589.66 h -984.68 c -46.64,0 -84.6,37.95 -84.6,84.58 v 150.27 c 0,46.65 37.96,84.59 84.6,84.59 h 791.93 c 6.84,0 12.38,-5.54 12.38,-12.37 0,-6.83 -5.54,-12.38 -12.38,-12.38 h -791.93 c -33,0 -59.85,-26.84 -59.85,-59.84 v -150.27 c 0,-32.99 26.85,-59.83 59.85,-59.83 h 984.68 c 33,0 59.85,26.84 59.85,59.83 v 150.27 c 0,33 -26.85,59.84 -59.85,59.84 h -46.12 c -6.83,0 -12.37,5.55 -12.37,12.38 0,6.83 5.54,12.37 12.37,12.37 h 46.12 c 46.63,0 84.6,-37.94 84.6,-84.59 v -150.27 c 0,-46.63 -37.97,-84.58 -84.6,-84.58"
         style="fill:#939aa0;fill-opacity:1;fill-rule:nonzero;stroke:none"
         id="path74" /><path
         d="m 3630.91,2242.93 h -966.1 c -12.09,0 -21.89,9.8 -21.89,21.89 v 250.92 c 0,12.09 9.8,21.89 21.89,21.89 h 966.1 c 12.08,0 21.88,-9.8 21.88,-21.89 v -250.92 c 0,-12.09 -9.8,-21.89 -21.88,-21.89"
         style="fill:#fcf9f9;fill-opacity:1;fill-rule:nonzero;stroke:none"
         id="path76" /><path
         d="m 2902.52,2385.36 c 0,-17.62 -14.29,-31.92 -31.92,-31.92 -17.63,0 -31.93,14.3 -31.93,31.92 0,17.64 14.3,31.93 31.93,31.93 17.63,0 31.92,-14.29 31.92,-31.93"
         style="fill:#939aa0;fill-opacity:1;fill-rule:nonzero;stroke:none"
         id="path78" /><path
         d="m 3113.16,2385.36 c 0,-17.62 -14.29,-31.92 -31.92,-31.92 -17.63,0 -31.93,14.3 -31.93,31.92 0,17.64 14.3,31.93 31.93,31.93 17.63,0 31.92,-14.29 31.92,-31.93"
         style="fill:#939aa0;fill-opacity:1;fill-rule:nonzero;stroke:none"
         id="path80" /><path
         d="m 3323.8,2385.36 c 0,-17.62 -14.3,-31.92 -31.92,-31.92 -17.63,0 -31.93,14.3 -31.93,31.92 0,17.64 14.3,31.93 31.93,31.93 17.62,0 31.92,-14.29 31.92,-31.93"
         style="fill:#939aa0;fill-opacity:1;fill-rule:nonzero;stroke:none"
         id="path82" /><path
         d="m 3534.44,2385.36 c 0,-17.62 -14.3,-31.92 -31.93,-31.92 -17.62,0 -31.92,14.3 -31.92,31.92 0,17.64 14.3,31.93 31.92,31.93 17.63,0 31.93,-14.29 31.93,-31.93"
         style="fill:#939aa0;fill-opacity:1;fill-rule:nonzero;stroke:none"
         id="path84" /><path
         d="m 2715.15,2525.25 c -33,0 -59.84,-26.84 -59.84,-59.84 v -150.26 c 0,-33 26.84,-59.84 59.84,-59.84 h 865.44 c 32.97,0 59.82,26.84 59.82,59.84 v 150.26 c 0,33 -26.85,59.84 -59.82,59.84 z m 865.44,-294.69 h -865.44 c -46.63,0 -84.6,37.94 -84.6,84.59 v 150.26 c 0,46.65 37.97,84.59 84.6,84.59 h 865.44 c 46.64,0 84.57,-37.94 84.57,-84.59 v -150.26 c 0,-46.65 -37.93,-84.59 -84.57,-84.59"
         style="fill:#939aa0;fill-opacity:1;fill-rule:nonzero;stroke:none"
         id="path86" /><path
         d="m 3274.73,3465.4 h -649.77 c -39.88,0 -72.21,-32.33 -72.21,-72.21 v -201.76 -87.42 -955.24 c 0,-39.88 32.33,-72.21 72.21,-72.21 h 77.82 l 0.35,-80 c 0,0 14.9,35.03 43.34,55.49 28.66,20.62 80.66,23.12 80.66,23.12 v 1.39 h 161.3 286.3 c 39.88,0 72.21,32.33 72.21,72.21 v 1244.42 c 0,39.88 -32.33,72.21 -72.21,72.21"
         style="fill:#fcf9f9;fill-opacity:1;fill-rule:nonzero;stroke:none"
         id="path88" /><path
         d="m 3109.52,3191.43 c 0,-88.03 -71.36,-159.38 -159.38,-159.38 -88.03,0 -159.39,71.35 -159.39,159.38 0,88.03 71.36,159.39 159.39,159.39 88.02,0 159.38,-71.36 159.38,-159.39"
         style="fill:#6a8f9b;fill-opacity:1;fill-rule:nonzero;stroke:none"
         id="path90" /><path
         d="m 3047.01,3065.2 c -27.06,-20.79 -60.72,-33 -97.02,-33 -36.3,0 -69.63,12.21 -96.36,32.34 17.16,33 45.54,56.43 78.87,62.7 v 24.75 c -27.39,8.25 -47.19,34.98 -47.19,66.66 0,38.28 29.04,69.3 64.68,69.3 35.97,0 64.68,-31.02 64.68,-69.3 0,-31.35 -19.47,-58.08 -46.2,-66.66 v -24.75 c 33,-6.27 61.38,-29.37 78.54,-62.04"
         style="fill:#fcf9f9;fill-opacity:1;fill-rule:nonzero;stroke:none"
         id="path92" /><path
         d="m 2949.98,3338.61 c -81.04,0 -147.01,-65.96 -147.01,-147.02 0,-46.13 21.2,-88.87 58.2,-117.24 52.02,-39.14 126.75,-38.96 178.31,0.66 36.57,27.99 57.52,70.48 57.52,116.58 0,81.06 -65.96,147.02 -147.02,147.02 z m 0,-318.79 c -37.64,0 -73.5,12.04 -103.8,34.82 -43.21,33.18 -67.96,83.07 -67.96,136.95 0,94.71 77.05,171.77 171.76,171.77 94.72,0 171.77,-77.06 171.77,-171.77 0,-53.87 -24.49,-103.53 -67.22,-136.22 -30.26,-23.26 -66.42,-35.55 -104.55,-35.55"
         style="fill:#1e5259;fill-opacity:1;fill-rule:nonzero;stroke:none"
         id="path94" /><path
         d="M 3149,2465.79 V 2313.1 h -122.23 v -123.27 h -152.55 v 123.27 h -122.36 v 152.69 h 122.36 v 121.18 h 152.55 V 2465.79 H 3149"
         style="fill:#81f2ef;fill-opacity:1;fill-rule:nonzero;stroke:none"
         id="path96" /><path
         d="m 2886.59,2202.2 h 127.82 v 110.91 c 0,6.83 5.54,12.37 12.37,12.37 h 109.86 v 127.93 h -109.86 c -6.83,0 -12.37,5.54 -12.37,12.37 v 108.81 h -127.82 v -108.81 c 0,-6.83 -5.54,-12.37 -12.37,-12.37 h -109.99 v -127.93 h 109.99 c 6.83,0 12.37,-5.54 12.37,-12.37 z m 140.19,-24.75 h -152.56 c -6.83,0 -12.38,5.54 -12.38,12.38 v 110.9 h -109.98 c -6.84,0 -12.38,5.55 -12.38,12.38 v 152.67 c 0,6.83 5.54,12.38 12.38,12.38 h 109.98 v 108.81 c 0,6.83 5.55,12.37 12.38,12.37 h 152.56 c 6.83,0 12.38,-5.54 12.38,-12.37 v -108.81 h 109.86 c 6.83,0 12.37,-5.55 12.37,-12.38 v -152.67 c 0,-6.83 -5.54,-12.38 -12.37,-12.38 h -109.86 v -110.9 c 0,-6.84 -5.55,-12.38 -12.38,-12.38"
         style="fill:#2d918a;fill-opacity:1;fill-rule:nonzero;stroke:none"
         id="path98" /><path
         d="M 2662.8,2810.55 H 3250.69 2662.8"
         style="fill:#fcf9f9;fill-opacity:1;fill-rule:nonzero;stroke:none"
         id="path100" /><path
         d="m 3250.69,2798.18 h -587.91 v 24.75 h 587.91 v -24.75"
         style="fill:#939aa0;fill-opacity:1;fill-rule:nonzero;stroke:none"
         id="path102" /><path
         d="M 2662.8,2718.3 H 3250.69 2662.8"
         style="fill:#fcf9f9;fill-opacity:1;fill-rule:nonzero;stroke:none"
         id="path104" /><path
         d="m 3250.69,2705.93 h -587.91 v 24.75 h 587.91 v -24.75"
         style="fill:#939aa0;fill-opacity:1;fill-rule:nonzero;stroke:none"
         id="path106" /><path
         d="M 3250.69,2882.68 H 2662.8 v 65.2 h 587.89 v -65.2"
         style="fill:#939aa0;fill-opacity:1;fill-rule:nonzero;stroke:none"
         id="path108" /><path
         d="m 3274.73,2064.19 h -138.89 c -6.83,0 -12.38,5.54 -12.38,12.37 0,6.84 5.55,12.38 12.38,12.38 h 138.89 c 33,0 59.85,26.84 59.85,59.83 v 1244.41 c 0,33 -26.85,59.85 -59.85,59.85 h -649.78 c -32.97,0 -59.82,-26.85 -59.82,-59.85 v -171.62 c 0,-6.83 -5.54,-12.38 -12.37,-12.38 -6.83,0 -12.37,5.55 -12.37,12.38 v 171.62 c 0,46.65 37.93,84.6 84.56,84.6 h 649.78 c 46.63,0 84.6,-37.95 84.6,-84.6 V 2148.77 c 0,-46.63 -37.97,-84.58 -84.6,-84.58"
         style="fill:#939aa0;fill-opacity:1;fill-rule:nonzero;stroke:none"
         id="path110" /><path
         d="m 2552.76,3030.87 c -6.83,0 -12.37,5.55 -12.37,12.38 v 76.6 c 0,6.83 5.54,12.38 12.37,12.38 6.83,0 12.37,-5.55 12.37,-12.38 v -76.6 c 0,-6.83 -5.54,-12.38 -12.37,-12.38"
         style="fill:#939aa0;fill-opacity:1;fill-rule:nonzero;stroke:none"
         id="path112" /><path
         d="m 1860.06,2770.98 h -414.31 c -40.85,0 -73.98,-33.12 -73.98,-73.98 v -284.38 c 0,-40.85 33.13,-73.97 73.98,-73.97 h 62.87 c 0,0 52,-2.5 80.65,-23.13 28.44,-20.46 43.35,-55.48 43.35,-55.48 l 0.35,78.61 h 227.09 c 40.86,0 73.98,33.12 73.98,73.97 V 2697 c 0,40.86 -33.12,73.98 -73.98,73.98"
         style="fill:#fcf9f9;fill-opacity:1;fill-rule:nonzero;stroke:none"
         id="path114" /><path
         d="m 1445.74,2326.27 c -47.6,0 -86.33,38.74 -86.33,86.35 v 284.39 c 0,47.61 38.73,86.35 86.33,86.35 h 287.24 c 6.83,0 12.37,-5.55 12.37,-12.38 0,-6.83 -5.54,-12.37 -12.37,-12.37 h -287.24 c -33.96,0 -61.58,-27.64 -61.58,-61.6 v -284.39 c 0,-33.96 27.62,-61.6 61.58,-61.6 6.84,0 12.38,-5.54 12.38,-12.37 0,-6.83 -5.54,-12.38 -12.38,-12.38"
         style="fill:#939aa0;fill-opacity:1;fill-rule:nonzero;stroke:none"
         id="path116" /><path
         d="m 1934.04,2542.43 c -6.83,0 -12.37,5.54 -12.37,12.38 v 142.2 c 0,33.96 -27.65,61.6 -61.62,61.6 h -23.04 c -6.83,0 -12.38,5.54 -12.38,12.37 0,6.83 5.55,12.38 12.38,12.38 h 23.04 c 47.63,0 86.37,-38.74 86.37,-86.35 v -142.2 c 0,-6.84 -5.55,-12.38 -12.38,-12.38"
         style="fill:#939aa0;fill-opacity:1;fill-rule:nonzero;stroke:none"
         id="path118" /><path
         d="m 1827.36,2677.6 -150.82,-185.05 -48.35,-60.31 -0.33,-0.21 -0.22,0.21 -48.35,60.31 -100.84,125.5 h 97.47 l 52.05,-64.87 101.49,124.42 h 97.9"
         style="fill:#81f2ef;fill-opacity:1;fill-rule:nonzero;stroke:none"
         id="path120" /><path
         d="m 1504.27,2605.68 123.65,-154 38.96,48.62 134.45,164.93 h -66 l -97.77,-119.87 c -2.35,-2.9 -5.58,-3.86 -9.67,-4.56 -3.71,0.02 -7.25,1.73 -9.6,4.63 l -48.31,60.25 z m 123.52,-185.9 c -3.19,0 -6.35,1.16 -8.7,3.49 l -150.27,187.03 c -3,3.71 -3.58,8.8 -1.52,13.1 2.07,4.29 6.39,7.03 11.15,7.03 h 97.46 c 3.74,0 7.31,-1.71 9.67,-4.63 l 42.47,-52.95 91.82,112.57 c 2.34,2.88 5.89,4.56 9.6,4.56 h 97.9 c 4.77,0 9.12,-2.75 11.18,-7.06 2.04,-4.31 1.42,-9.42 -1.57,-13.13 L 1637.85,2424.5 c -0.74,-0.91 -1.61,-1.71 -2.58,-2.39 -2.22,-1.54 -4.83,-2.33 -7.48,-2.33"
         style="fill:#2d918a;fill-opacity:1;fill-rule:nonzero;stroke:none"
         id="path122" /><path
         d="m 2358.6,2090.48 c 0,0 25.96,-127.09 17.19,-146.05 -8.77,-18.95 -82.49,-52.97 -82.49,-52.97 l -18.26,175.85 83.56,23.17"
         style="fill:#773128;fill-opacity:1;fill-rule:nonzero;stroke:none"
         id="path124" /><path
         d="m 2751.99,1190.8 -173.25,-1.65 -633.27,-6.27 -30.03,-0.33 18.48,238.26 19.47,250.14 c 5.28,0.33 99,50.16 171.93,89.76 h 0.33 c 26.07,14.19 49.83,27.06 65.67,35.31 0,0.33 0,0.33 0,0.33 12.87,6.93 20.46,11.22 20.46,11.22 l -7.92,24.09 c -19.47,-3.63 -24.42,-5.28 -43.23,-5.28 -59.07,-0.66 -121.77,47.85 -147.18,100.65 -21.45,44.22 -40.26,92.4 -55.11,134.31 -3.63,10.56 -6.93,20.79 -10.23,30.36 -16.17,46.86 -25.41,80.19 -25.41,80.19 l 6.93,42.9 286.77,98.01 c 17.49,-22.77 85.47,-135.3 85.47,-135.3 0,0 36.96,41.91 73.92,20.46 6.6,-3.63 13.2,-9.57 19.47,-17.49 40.92,-53.13 3.3,-91.41 -15.51,-103.95 -19.14,-12.54 -40.26,-16.83 -40.26,-16.83 0,0 15.18,-59.73 9.24,-102.3 -6.6,-43.56 -29.37,-64.68 -47.52,-74.58 l 21.45,-60.06 c 0,0 30.36,-17.49 72.6,-42.24 l 0.33,-0.33 c 85.14,-49.83 218.13,-129.69 241.89,-155.1 21.12,-22.77 52.14,-130.35 75.57,-218.46 4.29,-16.17 8.25,-31.35 11.88,-45.54 2.31,-8.91 4.29,-17.49 6.27,-25.08 6.27,-24.09 10.56,-42.24 12.87,-49.5 9.9,-33.66 7.92,-95.7 7.92,-95.7"
         style="fill:#f9aa8f;fill-opacity:1;fill-rule:nonzero;stroke:none"
         id="path126" /><path
         d="m 2375.79,2197.96 c -21.45,-17.82 -56.1,-43.56 -80.52,-48.51 -37.62,-7.59 -98.01,45.54 -98.01,45.54 0,0 -44.55,-58.41 -99.99,-85.14 -30.03,-14.52 -99.66,-20.13 -138.93,-48.51 -3.63,10.56 -6.93,20.79 -10.23,30.36 -16.17,46.86 -25.41,80.19 -25.41,80.19 l 6.93,42.9 286.77,98.01 c 17.49,-22.77 85.47,-135.3 85.47,-135.3 0,0 36.96,41.91 73.92,20.46"
         style="fill:#cc6148;fill-opacity:1;fill-rule:nonzero;stroke:none"
         id="path128" /><path
         d="m 2125.65,1760.71 c 47.52,25.74 86.13,46.86 86.13,46.86 l -7.92,24.09 97.35,51.15 -49.77,-53.09 5.22,-17.86 -100.75,-52.5 -30.26,1.35"
         style="fill:#cc6148;fill-opacity:1;fill-rule:nonzero;stroke:none"
         id="path130" /><path
         d="m 2759.51,1237.1 -130.6,-44.65 -50.17,-3.3 -633.27,-6.27 -11.55,237.93 19.47,250.14 c 5.28,0.33 99,50.16 171.93,89.76 h 0.33 c 26.07,14.19 49.83,27.06 65.67,35.31 0.66,-4.95 6.93,-53.46 42.9,-70.29 37.95,-17.82 89.76,-15.18 116.49,3.63 26.73,19.14 44.55,51.15 44.55,51.15 l 0.33,-0.33 c 85.14,-49.83 218.13,-129.69 241.89,-155.1 25.08,-27.06 79.2,-202.33 122.03,-387.98"
         style="fill:#fcf9f9;fill-opacity:1;fill-rule:nonzero;stroke:none"
         id="path132" /><path
         d="m 1876.23,2297.6 c 0,0 -8.5,110.99 100.06,152.93 182.12,70.35 236.96,-53.93 236.96,-53.93 0,0 33.71,50.84 97.95,35.43 64.25,-15.42 80.41,-124.8 63.56,-184.98 -15.37,-54.86 -72.84,-90.2 -109.9,-77.41 -57.99,20.02 -68.89,50.96 -68.89,50.96 0,0 -22.74,-98.88 -180.71,-110.21 -106.44,-7.63 -126.39,55.56 -126.39,55.56 0,0 -55.19,5.27 -61.51,55.82 -6.32,50.56 48.87,75.83 48.87,75.83"
         style="fill:#a54d3c;fill-opacity:1;fill-rule:nonzero;stroke:none"
         id="path134" /><path
         d="m 2130.14,2060.28 c 0,0 -2.63,16.33 0,23.17 2.64,6.85 25.28,15.98 48.97,14.4 23.7,-1.58 32.66,-9.66 32.66,-9.66 0,0 -40.03,-9.13 -53.72,-13.51 -13.69,-4.39 -27.91,-14.4 -27.91,-14.4"
         style="fill:#773128;fill-opacity:1;fill-rule:nonzero;stroke:none"
         id="path136" /><path
         d="m 2051.68,2049.75 c 0,0 -4.21,17.91 -13.69,21.07 -9.48,3.16 -31.91,-0.9 -44.59,-7.02 -9.06,-4.38 -18.08,-20.89 -18.08,-20.89 0,0 27.65,10.02 40.55,10.54 12.9,0.53 35.81,-3.7 35.81,-3.7"
         style="fill:#773128;fill-opacity:1;fill-rule:nonzero;stroke:none"
         id="path138" /><path
         d="m 2195.66,2015.38 c 4.24,-10.88 2.66,-21.65 -3.52,-24.06 -6.19,-2.41 -14.65,4.45 -18.89,15.32 -4.24,10.88 -2.66,21.65 3.53,24.06 6.18,2.41 14.64,-4.45 18.88,-15.32"
         style="fill:#773128;fill-opacity:1;fill-rule:nonzero;stroke:none"
         id="path140" /><path
         d="m 2056.11,1982.73 c 4.24,-10.88 2.66,-21.65 -3.52,-24.06 -6.19,-2.41 -14.64,4.45 -18.88,15.32 -4.24,10.88 -2.67,21.65 3.52,24.06 6.19,2.42 14.64,-4.45 18.88,-15.32"
         style="fill:#773128;fill-opacity:1;fill-rule:nonzero;stroke:none"
         id="path142" /><path
         d="m 2116.92,1913.09 c -11.41,0 -25.95,2.77 -33.84,15.19 -7.57,11.87 -4.67,22.05 -1.64,32.83 3.41,12.03 7.25,25.7 0.22,48.23 -12.95,41.57 -38.22,42.55 -39.31,42.57 -2.97,0.05 -5.39,2.49 -5.35,5.47 0.03,2.99 2.44,5.39 5.41,5.39 1.38,0 34.16,-0.57 49.63,-50.21 7.99,-25.6 3.29,-42.25 -0.13,-54.4 -2.87,-10.15 -4.61,-16.29 0.32,-24.04 9.67,-15.2 38.1,-8.77 38.35,-8.69 2.9,0.57 5.87,-1.11 6.58,-3.99 0.7,-2.92 -1.1,-5.85 -4,-6.58 -0.65,-0.14 -7.51,-1.77 -16.24,-1.77"
         style="fill:#cc6148;fill-opacity:1;fill-rule:nonzero;stroke:none"
         id="path144" /><path
         d="m 2165.84,1875.03 c -2.74,0 -5.13,0.37 -7.03,0.92 -2.87,0.84 -4.54,3.85 -3.7,6.74 0.8,2.85 3.86,4.49 6.66,3.72 0.84,-0.26 17.89,-4.5 29.53,18.3 1.38,2.66 4.67,3.69 7.31,2.36 2.68,-1.37 3.71,-4.65 2.35,-7.32 -10.02,-19.6 -24.88,-24.72 -35.12,-24.72"
         style="fill:#cc6148;fill-opacity:1;fill-rule:nonzero;stroke:none"
         id="path146" /><path
         d="m 2317.14,2104.26 c -0.23,0 -0.48,0.01 -0.74,0.05 -2.97,0.4 -5.06,3.14 -4.64,6.11 0.16,1.11 3.93,27.03 28.49,34.83 2.9,0.92 5.93,-0.66 6.83,-3.53 0.9,-2.85 -0.68,-5.91 -3.54,-6.81 -18.08,-5.76 -20.99,-25.75 -21.02,-25.95 -0.35,-2.72 -2.7,-4.7 -5.38,-4.7"
         style="fill:#cc6148;fill-opacity:1;fill-rule:nonzero;stroke:none"
         id="path148" /><path
         d="m 2707.31,1228.75 c 0,0 -141.24,-48.18 -156.75,-22.11 -7.25,12.21 -29.03,60.06 -49.83,105.93 -10.55,23.43 -20.79,46.2 -28.37,64.02 -9.24,20.46 -15.18,33.99 -15.18,33.99 l 67.98,98.34 182.15,-280.17"
         style="fill:#f9aa8f;fill-opacity:1;fill-rule:nonzero;stroke:none"
         id="path150" /><path
         d="m 2536.95,1363.42 c 4.13,-39.05 30.66,-170.64 21.42,-180.87 -10.56,23.43 -78.43,176.22 -86.01,194.04 l 53.79,94.71 c 0,0 6.66,-68.69 10.8,-107.88"
         style="fill:#cc6148;fill-opacity:1;fill-rule:nonzero;stroke:none"
         id="path152" /><path
         d="m 2464.28,1544.22 c 24.2,0.93 64.6,-25.99 69.51,-54.77 4.91,-28.78 -22.46,-131.29 -56.17,-132.7 -33.7,-1.4 -86.36,28.09 -86.36,28.09 0,0 -5.36,-43.53 -21.29,-70.22 -15.92,-26.68 -29.96,-42.12 -44.01,-36.5 -14.04,5.61 7.02,58.27 7.73,102.5 0.7,44.24 -4.92,84.96 2.1,98.3 7.02,13.34 91.98,63.89 128.49,65.3"
         style="fill:#f9aa8f;fill-opacity:1;fill-rule:nonzero;stroke:none"
         id="path154" /><path
         d="m 1170.16,1228.75 c 5.94,-5.61 11.88,-10.89 17.82,-16.5 244.2,-217.801 566.28,-350.461 919.38,-350.461 353.1,0 675.18,132.66 919.38,350.461 5.94,5.61 11.88,10.89 17.82,16.5 h -1874.4"
         style="fill:#bce4ed;fill-opacity:1;fill-rule:nonzero;stroke:none"
         id="path156" /><path
         d="m 1152.67,1245.25 c 5.61,-5.61 11.55,-11.22 17.49,-16.5 5.94,-5.61 11.88,-10.89 17.82,-16.5 h 1838.76 c 5.94,5.61 11.88,10.89 17.82,16.5 5.94,5.28 11.88,10.89 17.49,16.5 H 1152.67"
         style="fill:#6a8f9b;fill-opacity:1;fill-rule:nonzero;stroke:none"
         id="path158" /><path
         d="M 2413.8,1261.26 H 1539.01 2413.8"
         style="fill:#6a8f9b;fill-opacity:1;fill-rule:nonzero;stroke:none"
         id="path160" /><path
         d="m 2413.8,1244.77 h -874.79 c -9.12,0 -16.5,7.37 -16.5,16.5 0,9.11 7.38,16.49 16.5,16.49 h 874.79 c 9.12,0 16.5,-7.38 16.5,-16.49 0,-9.13 -7.38,-16.5 -16.5,-16.5"
         style="fill:#6a8f9b;fill-opacity:1;fill-rule:nonzero;stroke:none"
         id="path162" /><path
         d="m 2089.92,1686.46 h -680.56 l 154.43,-449.36 h 680.57 l -154.44,449.36"
         style="fill:#6a8f9b;fill-opacity:1;fill-rule:nonzero;stroke:none"
         id="path164" /><path
         d="m 1575.55,1253.61 h 645.7 l -143.09,416.35 h -645.69 z m 668.8,-33 h -680.56 c -7.06,0 -13.31,4.48 -15.6,11.13 l -154.42,449.35 c -1.75,5.05 -0.94,10.62 2.15,14.96 3.1,4.33 8.12,6.91 13.44,6.91 h 680.56 c 7.06,0 13.31,-4.48 15.6,-11.13 l 154.43,-449.35 c 1.74,-5.05 0.93,-10.62 -2.16,-14.96 -3.09,-4.33 -8.12,-6.91 -13.44,-6.91"
         style="fill:#6a8f9b;fill-opacity:1;fill-rule:nonzero;stroke:none"
         id="path166" /><path
         d="m 1791.28,1561.32 c 0,0 96.89,-57.92 105.32,-111.63 8.43,-53.71 -21.07,-75.83 -52.66,-84.26 -31.59,-8.42 -80.04,16.85 -87.41,60.03 -7.38,43.18 34.75,135.86 34.75,135.86"
         style="fill:#fcf9f9;fill-opacity:1;fill-rule:nonzero;stroke:none"
         id="path168" /><path
         d="m 1798.79,1536.85 c -12.7,-31.45 -30.36,-83.1 -25.98,-108.62 3.45,-20.27 18.08,-32.37 26.53,-37.79 13.24,-8.5 29.13,-12.13 40.34,-9.07 33.36,8.91 46.28,29.8 40.61,65.76 -4.9,31.26 -51.44,69.13 -81.5,89.72 z m 32.16,-189.52 c -16.27,0 -33.84,5.31 -49.43,15.35 -22.47,14.41 -37.13,35.72 -41.25,60.01 -8,46.82 31.45,135.51 35.99,145.47 1.93,4.27 5.61,7.52 10.09,8.91 4.51,1.4 9.34,0.8 13.41,-1.58 10.6,-6.33 103.8,-63.62 113.14,-123.25 8.32,-52.9 -14.66,-89.4 -64.71,-102.74 -5.48,-1.46 -11.28,-2.17 -17.24,-2.17"
         style="fill:#fcf9f9;fill-opacity:1;fill-rule:nonzero;stroke:none"
         id="path170" /><path
         d="m 1814.47,1445.31 30.66,-117.6 -30.66,117.6"
         style="fill:#6a8f9b;fill-opacity:1;fill-rule:nonzero;stroke:none"
         id="path172" /><path
         d="m 1845.13,1315.34 c -5.51,0 -10.54,3.69 -11.99,9.25 l -30.64,117.6 c -1.71,6.62 2.25,13.37 8.85,15.09 6.74,1.77 13.38,-2.24 15.12,-8.84 l 30.65,-117.6 c 1.71,-6.62 -2.26,-13.37 -8.86,-15.1 -1.07,-0.27 -2.1,-0.4 -3.13,-0.4"
         style="fill:#6a8f9b;fill-opacity:1;fill-rule:nonzero;stroke:none"
         id="path174" /><path
         d="M 2269.2,3439.42 V 3291.25 H 1133.67 c -13.49,0 -24.42,-10.94 -24.42,-24.42 V 1732.66 H 961.41 v 1637.4 c 0,38.3 31.055,69.36 69.36,69.36 H 2269.2"
         style="fill:#fcf9f9;fill-opacity:1;fill-rule:nonzero;stroke:none"
         id="path176" /><path
         d="m 973.789,1745.03 h 123.071 v 1521.79 c 0,20.29 16.5,36.8 36.8,36.8 h 1123.16 v 123.42 H 1030.77 c -31.426,0 -56.981,-25.56 -56.981,-56.98 z m 147.821,-24.75 H 949.039 v 1649.78 c 0,45.07 36.676,81.73 81.731,81.73 h 1250.8 V 3278.87 H 1133.66 c -6.63,0 -12.05,-5.41 -12.05,-12.05 V 1720.28"
         style="fill:#939aa0;fill-opacity:1;fill-rule:nonzero;stroke:none"
         id="path178" /><path
         d="m 1277.95,1727.09 c 0,-133.99 -108.62,-242.62 -242.62,-242.62 -133.998,0 -242.627,108.63 -242.627,242.62 0,134 108.629,242.63 242.627,242.63 134,0 242.62,-108.63 242.62,-242.63"
         style="fill:#bce4ed;fill-opacity:1;fill-rule:nonzero;stroke:none"
         id="path180" /><path
         d="m 1271.49,1770.62 c -5.6,0 -10.69,3.84 -12.05,9.52 -7.31,30.91 -20.69,59.49 -39.76,84.95 -4.1,5.48 -3,13.23 2.48,17.34 5.51,4.08 13.24,2.95 17.3,-2.48 21.15,-28.22 35.97,-59.86 44.09,-94.1 1.58,-6.66 -2.54,-13.33 -9.22,-14.89 -0.93,-0.23 -1.9,-0.34 -2.84,-0.34"
         style="fill:#6a8f9b;fill-opacity:1;fill-rule:nonzero;stroke:none"
         id="path182" /><path
         d="m 1035.34,1472.09 c -140.606,0 -255.012,114.4 -255.012,255.01 0,140.6 114.406,254.99 255.012,254.99 51.08,0 100.35,-15.06 142.57,-43.54 5.67,-3.83 7.15,-11.52 3.32,-17.19 -3.83,-5.67 -11.53,-7.07 -17.18,-3.34 -38.09,25.72 -82.59,39.32 -128.71,39.32 -126.973,0 -230.258,-103.29 -230.258,-230.24 0,-126.97 103.285,-230.26 230.258,-230.26 104.74,0 196.36,70.71 222.78,171.93 1.78,6.59 8.67,10.49 15.12,8.85 6.6,-1.73 10.57,-8.5 8.86,-15.1 -29.29,-112.12 -130.78,-190.43 -246.76,-190.43"
         style="fill:#6a8f9b;fill-opacity:1;fill-rule:nonzero;stroke:none"
         id="path184" /><path
         d="m 1147.54,1727.09 c 0,-63.73 -51.66,-115.39 -115.39,-115.39 -63.732,0 -115.4,51.66 -115.4,115.39 0,63.74 51.668,115.4 115.4,115.4 63.73,0 115.39,-51.66 115.39,-115.4"
         style="fill:#fcf9f9;fill-opacity:1;fill-rule:nonzero;stroke:none"
         id="path186" /><path
         d="m 1277.95,2353.02 c 0,-134 -108.62,-242.63 -242.62,-242.63 -133.998,0 -242.627,108.63 -242.627,242.63 0,133.99 108.629,242.62 242.627,242.62 134,0 242.62,-108.63 242.62,-242.62"
         style="fill:#ff7769;fill-opacity:1;fill-rule:nonzero;stroke:none"
         id="path188" /><path
         d="m 1035.34,2583.26 c -126.973,0 -230.258,-103.29 -230.258,-230.24 0,-126.97 103.285,-230.26 230.258,-230.26 126.94,0 230.23,103.29 230.23,230.26 0,126.95 -103.29,230.24 -230.23,230.24 z m 0,-485.25 c -140.606,0 -255.012,114.4 -255.012,255.01 0,140.6 114.406,254.99 255.012,254.99 140.6,0 254.98,-114.39 254.98,-254.99 0,-140.61 -114.38,-255.01 -254.98,-255.01"
         style="fill:#dd4231;fill-opacity:1;fill-rule:nonzero;stroke:none"
         id="path190" /><path
         d="m 1187.42,2324.37 c -8.11,-18.64 -21.48,-33.58 -37.85,-43.55 l -6.69,-3.84 -107.45,-61.48 -107.59,61.48 -6.832,3.84 c -16.227,9.97 -29.598,24.91 -37.856,43.55 -21.066,48.82 1.278,105.46 49.953,126.52 35.579,15.37 75.145,7.83 102.185,-16.36 27.18,24.19 66.75,31.73 102.18,16.36 48.82,-21.06 71.16,-77.7 49.95,-126.52"
         style="fill:#fcf9f9;fill-opacity:1;fill-rule:nonzero;stroke:none"
         id="path192" /><path
         d="m 1277.95,2978.94 c 0,-134 -108.62,-242.62 -242.62,-242.62 -133.998,0 -242.627,108.62 -242.627,242.62 0,134 108.629,242.62 242.627,242.62 134,0 242.62,-108.62 242.62,-242.62"
         style="fill:#81f2ef;fill-opacity:1;fill-rule:nonzero;stroke:none"
         id="path194" /><path
         d="m 1035.34,2723.95 c -140.606,0 -255.012,114.39 -255.012,254.99 0,22.93 3.031,45.68 9.059,67.6 1.773,6.59 8.441,10.5 15.179,8.67 6.606,-1.81 10.473,-8.62 8.668,-15.22 -5.414,-19.78 -8.152,-40.33 -8.152,-61.05 0,-126.96 103.285,-230.24 230.258,-230.24 126.94,0 230.23,103.28 230.23,230.24 0,126.96 -103.29,230.24 -230.23,230.24 -63.809,0 -123.141,-25.5 -167.063,-71.81 -4.707,-4.97 -12.535,-5.18 -17.5,-0.45 -4.961,4.7 -5.187,12.53 -0.48,17.49 48.66,51.27 114.371,79.52 185.043,79.52 140.6,0 254.98,-114.39 254.98,-254.99 0,-140.6 -114.38,-254.99 -254.98,-254.99"
         style="fill:#2d918a;fill-opacity:1;fill-rule:nonzero;stroke:none"
         id="path196" /><path
         d="m 1139.31,2954.58 c 0,-59.21 -47.96,-107.16 -107.16,-107.16 -59.212,0 -107.166,47.95 -107.166,107.16 0,22.77 7.094,43.94 19.289,61.36 l 5.223,6.96 82.654,87.71 82.65,-87.71 5.22,-6.96 c 12.19,-17.42 19.29,-38.59 19.29,-61.36"
         style="fill:#fcf9f9;fill-opacity:1;fill-rule:nonzero;stroke:none"
         id="path198" /><path
         d="M 2425.75,2873.35 H 1411.58 c -12.09,0 -21.89,9.8 -21.89,21.88 v 811.4 c 0,12.09 9.8,21.89 21.89,21.89 h 1014.17 c 12.09,0 21.89,-9.8 21.89,-21.89 v -811.4 c 0,-12.08 -9.8,-21.88 -21.89,-21.88"
         style="fill:#fcf9f9;fill-opacity:1;fill-rule:nonzero;stroke:none"
         id="path200" /><path
         d="m 1626.6,2860.97 h -164.68 c -46.63,0 -84.59,37.95 -84.59,84.6 v 710.74 c 0,46.63 37.96,84.58 84.59,84.58 h 913.5 c 46.63,0 84.59,-37.95 84.59,-84.58 v -143.7 c 0,-6.83 -5.54,-12.38 -12.37,-12.38 -6.84,0 -12.38,5.55 -12.38,12.38 v 143.7 c 0,32.98 -26.84,59.83 -59.84,59.83 h -913.5 c -33,0 -59.84,-26.85 -59.84,-59.83 v -710.74 c 0,-33 26.84,-59.85 59.84,-59.85 h 164.68 c 6.83,0 12.38,-5.54 12.38,-12.37 0,-6.83 -5.55,-12.38 -12.38,-12.38"
         style="fill:#939aa0;fill-opacity:1;fill-rule:nonzero;stroke:none"
         id="path202" /><path
         d="m 2447.64,3351.42 c -6.84,0 -12.38,5.54 -12.38,12.37 v 55.48 c 0,6.83 5.54,12.37 12.38,12.37 6.83,0 12.37,-5.54 12.37,-12.37 v -55.48 c 0,-6.83 -5.54,-12.37 -12.37,-12.37"
         style="fill:#939aa0;fill-opacity:1;fill-rule:nonzero;stroke:none"
         id="path204" /><path
         d="m 2138.48,3156.73 h 197.65 -197.65"
         style="fill:#fcf9f9;fill-opacity:1;fill-rule:nonzero;stroke:none"
         id="path206" /><path
         d="m 2336.14,3144.36 h -197.65 v 24.75 h 197.65 v -24.75"
         style="fill:#939aa0;fill-opacity:1;fill-rule:nonzero;stroke:none"
         id="path208" /><path
         d="m 2138.48,3064.48 h 197.65 -197.65"
         style="fill:#fcf9f9;fill-opacity:1;fill-rule:nonzero;stroke:none"
         id="path210" /><path
         d="m 2336.14,3052.11 h -197.65 v 24.75 h 197.65 v -24.75"
         style="fill:#939aa0;fill-opacity:1;fill-rule:nonzero;stroke:none"
         id="path212" /><path
         d="m 1508.62,3623.95 h 827.86 -827.86"
         style="fill:#fcf9f9;fill-opacity:1;fill-rule:nonzero;stroke:none"
         id="path214" /><path
         d="m 2336.49,3611.57 h -827.87 v 24.75 h 827.87 v -24.75"
         style="fill:#939aa0;fill-opacity:1;fill-rule:nonzero;stroke:none"
         id="path216" /><path
         d="m 1731.43,3048.66 -107.76,229.39 -104.45,-125.78 -19.01,15.82 129.32,155.72 105,-223.49 235.96,378.12 138.41,-162.67 222.91,90.72 9.35,-22.91 -239.47,-97.49 -128.11,150.55 -242.15,-387.98"
         style="fill:#ff7769;fill-opacity:1;fill-rule:nonzero;stroke:none"
         id="path218" /><path
         d="m 1540.95,3160.18 c 0,-17.26 -13.99,-31.25 -31.25,-31.25 -17.26,0 -31.25,13.99 -31.25,31.25 0,17.26 13.99,31.25 31.25,31.25 17.26,0 31.25,-13.99 31.25,-31.25"
         style="fill:#dd4231;fill-opacity:1;fill-rule:nonzero;stroke:none"
         id="path220" /><path
         d="m 1657.86,3300.93 c 0,-17.26 -14,-31.25 -31.26,-31.25 -17.25,0 -31.25,13.99 -31.25,31.25 0,17.26 14,31.25 31.25,31.25 17.26,0 31.26,-13.99 31.26,-31.25"
         style="fill:#dd4231;fill-opacity:1;fill-rule:nonzero;stroke:none"
         id="path222" /><path
         d="m 1764.23,3074.5 c 0,-17.26 -13.99,-31.25 -31.25,-31.25 -17.26,0 -31.25,13.99 -31.25,31.25 0,17.26 13.99,31.25 31.25,31.25 17.26,0 31.25,-13.99 31.25,-31.25"
         style="fill:#dd4231;fill-opacity:1;fill-rule:nonzero;stroke:none"
         id="path224" /><path
         d="m 2003.3,3457.54 c 0,-17.25 -13.99,-31.25 -31.25,-31.25 -17.26,0 -31.25,14 -31.25,31.25 0,17.26 13.99,31.26 31.25,31.26 17.26,0 31.25,-14 31.25,-31.26"
         style="fill:#dd4231;fill-opacity:1;fill-rule:nonzero;stroke:none"
         id="path226" /><path
         d="m 2136.55,3300.93 c 0,-17.26 -13.99,-31.25 -31.25,-31.25 -17.26,0 -31.25,13.99 -31.25,31.25 0,17.26 13.99,31.25 31.25,31.25 17.26,0 31.25,-13.99 31.25,-31.25"
         style="fill:#dd4231;fill-opacity:1;fill-rule:nonzero;stroke:none"
         id="path228" /><path
         d="m 2367.73,3395.04 c 0,-17.26 -13.99,-31.25 -31.25,-31.25 -17.26,0 -31.25,13.99 -31.25,31.25 0,17.26 13.99,31.25 31.25,31.25 17.26,0 31.25,-13.99 31.25,-31.25"
         style="fill:#dd4231;fill-opacity:1;fill-rule:nonzero;stroke:none"
         id="path230" /><path
         d="M 920.801,771.48 H 1669.3 c 17.91,0 32.43,14.52 32.43,32.43 v 560.55 c 0,17.91 -14.52,32.43 -32.43,32.43 H 920.797 c -17.906,0 -32.426,-14.52 -32.426,-32.43 V 803.91 c 0,-17.91 14.52,-32.43 32.43,-32.43"
         style="fill:#fcf9f9;fill-opacity:1;fill-rule:nonzero;stroke:none"
         id="path232" /><path
         d="m 1410.76,923.039 h -332.8 v 352.471 h 332.8 V 923.039"
         style="fill:#ff7769;fill-opacity:1;fill-rule:nonzero;stroke:none"
         id="path234" /><path
         d="m 1090.32,935.422 h 308.08 v 327.708 h -308.08 z m 320.46,-24.75 h -332.84 c -6.83,0 -12.37,5.539 -12.37,12.379 v 352.459 c 0,6.83 5.54,12.37 12.37,12.37 h 332.84 c 6.83,0 12.37,-5.54 12.37,-12.37 V 923.051 c 0,-6.84 -5.54,-12.379 -12.37,-12.379"
         style="fill:#dd4231;fill-opacity:1;fill-rule:nonzero;stroke:none"
         id="path236" /><path
         d="m 1410.76,1205.29 h 122.88 l 90.57,-109.15 V 923.039 h -213.45 v 282.251"
         style="fill:#ff7769;fill-opacity:1;fill-rule:nonzero;stroke:none"
         id="path238" /><path
         d="m 1423.15,935.422 h 188.69 v 156.248 l -84.01,101.26 h -104.68 z m 201.07,-24.75 h -213.44 c -6.83,0 -12.38,5.539 -12.38,12.379 V 1205.3 c 0,6.84 5.55,12.38 12.38,12.38 h 122.85 c 3.67,0 7.19,-1.64 9.54,-4.48 l 90.58,-109.17 c 1.84,-2.21 2.84,-5.01 2.84,-7.89 V 923.051 c 0,-6.84 -5.54,-12.379 -12.37,-12.379"
         style="fill:#dd4231;fill-opacity:1;fill-rule:nonzero;stroke:none"
         id="path240" /><path
         d="M 1624.21,1096.14 H 1488 v 58.6 h 87.58 l 48.63,-58.6"
         style="fill:#fcf9f9;fill-opacity:1;fill-rule:nonzero;stroke:none"
         id="path242" /><path
         d="m 1500.37,1108.51 h 97.48 l -28.06,33.85 h -69.42 z m 123.85,-24.75 H 1488 c -6.84,0 -12.38,5.54 -12.38,12.38 v 58.6 c 0,6.83 5.54,12.37 12.38,12.37 h 87.59 c 3.67,0 7.18,-1.64 9.53,-4.47 l 48.63,-58.61 c 3.07,-3.69 3.71,-8.81 1.68,-13.15 -2.06,-4.35 -6.41,-7.12 -11.21,-7.12"
         style="fill:#dd4231;fill-opacity:1;fill-rule:nonzero;stroke:none"
         id="path244" /><path
         d="M 1204.34,1180.28 H 983.875 c -6.832,0 -12.375,5.54 -12.375,12.38 0,6.83 5.543,12.37 12.375,12.37 h 220.465 c 6.83,0 12.37,-5.54 12.37,-12.37 0,-6.84 -5.54,-12.38 -12.37,-12.38"
         style="fill:#dd4231;fill-opacity:1;fill-rule:nonzero;stroke:none"
         id="path246" /><path
         d="M 1204.34,1107.96 H 983.875 c -6.832,0 -12.375,5.54 -12.375,12.38 0,6.83 5.543,12.37 12.375,12.37 h 220.465 c 6.83,0 12.37,-5.54 12.37,-12.37 0,-6.84 -5.54,-12.38 -12.37,-12.38"
         style="fill:#dd4231;fill-opacity:1;fill-rule:nonzero;stroke:none"
         id="path248" /><path
         d="M 1204.34,1035.65 H 983.875 c -6.832,0 -12.375,5.54 -12.375,12.37 0,6.83 5.543,12.38 12.375,12.38 h 220.465 c 6.83,0 12.37,-5.55 12.37,-12.38 0,-6.83 -5.54,-12.37 -12.37,-12.37"
         style="fill:#dd4231;fill-opacity:1;fill-rule:nonzero;stroke:none"
         id="path250" /><path
         d="m 1275.55,923.039 c 0,34.742 -28.16,62.91 -62.91,62.91 -34.74,0 -62.91,-28.168 -62.91,-62.91 0,-34.738 28.17,-62.91 62.91,-62.91 34.75,0 62.91,28.172 62.91,62.91"
         style="fill:#fcf9f9;fill-opacity:1;fill-rule:nonzero;stroke:none"
         id="path252" /><path
         d="m 1212.65,973.582 c -27.87,0 -50.53,-22.672 -50.53,-50.531 0,-27.879 22.66,-50.551 50.53,-50.551 27.88,0 50.54,22.672 50.54,50.551 0,27.859 -22.66,50.531 -50.54,50.531 z m 0,-125.832 c -41.51,0 -75.28,33.77 -75.28,75.301 0,41.508 33.77,75.281 75.28,75.281 41.51,0 75.28,-33.773 75.28,-75.281 0,-41.531 -33.77,-75.301 -75.28,-75.301"
         style="fill:#dd4231;fill-opacity:1;fill-rule:nonzero;stroke:none"
         id="path254" /><path
         d="m 1580.4,923.039 c 0,34.742 -28.17,62.91 -62.91,62.91 -34.75,0 -62.91,-28.168 -62.91,-62.91 0,-34.738 28.16,-62.91 62.91,-62.91 34.74,0 62.91,28.172 62.91,62.91"
         style="fill:#fcf9f9;fill-opacity:1;fill-rule:nonzero;stroke:none"
         id="path256" /><path
         d="m 1517.48,973.582 c -27.88,0 -50.53,-22.672 -50.53,-50.531 0,-27.879 22.65,-50.551 50.53,-50.551 27.88,0 50.53,22.672 50.53,50.551 0,27.859 -22.65,50.531 -50.53,50.531 z m 0,-125.832 c -41.51,0 -75.28,33.77 -75.28,75.301 0,41.508 33.77,75.281 75.28,75.281 41.51,0 75.28,-33.773 75.28,-75.281 0,-41.531 -33.77,-75.301 -75.28,-75.301"
         style="fill:#dd4231;fill-opacity:1;fill-rule:nonzero;stroke:none"
         id="path258" /><path
         d="m 1580.39,759.109 h -85.56 c -6.83,0 -12.38,5.539 -12.38,12.379 0,6.832 5.55,12.371 12.38,12.371 h 85.56 c 6.83,0 12.37,-5.539 12.37,-12.371 0,-6.84 -5.54,-12.379 -12.37,-12.379"
         style="fill:#939aa0;fill-opacity:1;fill-rule:nonzero;stroke:none"
         id="path260" /><path
         d="M 1388.29,759.109 H 995.383 c -65.809,0 -119.371,53.563 -119.371,119.379 v 411.392 c 0,65.82 53.562,119.38 119.371,119.38 h 248.977 c 6.83,0 12.38,-5.54 12.38,-12.37 0,-6.83 -5.55,-12.38 -12.38,-12.38 H 995.383 c -52.176,0 -94.617,-42.45 -94.617,-94.63 V 878.488 c 0,-52.168 42.441,-94.629 94.617,-94.629 h 392.907 c 6.83,0 12.37,-5.539 12.37,-12.371 0,-6.84 -5.54,-12.379 -12.37,-12.379"
         style="fill:#939aa0;fill-opacity:1;fill-rule:nonzero;stroke:none"
         id="path262" /><path
         d="m 1552.84,1981.03 c 0,-16.56 -13.42,-29.99 -29.98,-29.99 -16.56,0 -29.99,13.43 -29.99,29.99 0,16.55 13.43,29.98 29.99,29.98 16.56,0 29.98,-13.43 29.98,-29.98"
         style="fill:#fcf9f9;fill-opacity:1;fill-rule:nonzero;stroke:none"
         id="path264" /><path
         d="m 1723.29,1803.83 c 0,-9.54 -7.73,-17.26 -17.26,-17.26 -9.54,0 -17.26,7.72 -17.26,17.26 0,9.53 7.72,17.25 17.26,17.25 9.53,0 17.26,-7.72 17.26,-17.25"
         style="fill:#fcf9f9;fill-opacity:1;fill-rule:nonzero;stroke:none"
         id="path266" /><path
         d="m 1629.78,2119.09 c 0,-11.63 -9.43,-21.06 -21.06,-21.06 -11.63,0 -21.06,9.43 -21.06,21.06 0,11.63 9.43,21.06 21.06,21.06 11.63,0 21.06,-9.43 21.06,-21.06"
         style="fill:#fcf9f9;fill-opacity:1;fill-rule:nonzero;stroke:none"
         id="path268" /><path
         d="m 2380.97,2600.66 c 0,-9.46 -7.66,-17.13 -17.12,-17.13 -9.46,0 -17.13,7.67 -17.13,17.13 0,9.46 7.67,17.13 17.13,17.13 9.46,0 17.12,-7.67 17.12,-17.13"
         style="fill:#fcf9f9;fill-opacity:1;fill-rule:nonzero;stroke:none"
         id="path270" /><path
         d="m 2684.57,1743.55 c 0,-6.02 -4.87,-10.89 -10.89,-10.89 -6.01,0 -10.88,4.87 -10.88,10.89 0,6.01 4.87,10.89 10.88,10.89 6.02,0 10.89,-4.88 10.89,-10.89"
         style="fill:#fcf9f9;fill-opacity:1;fill-rule:nonzero;stroke:none"
         id="path272" /><path
         d="m 3147.86,1007.02 c 0,-28.071 -22.76,-50.821 -50.82,-50.821 -28.08,0 -50.83,22.75 -50.83,50.821 0,28.07 22.75,50.83 50.83,50.83 28.06,0 50.82,-22.76 50.82,-50.83"
         style="fill:#fcd9d9;fill-opacity:1;fill-rule:nonzero;stroke:none"
         id="path274" /><path
         d="m 3250.19,1251.47 c 0,-17.42 -14.13,-31.54 -31.55,-31.54 -17.42,0 -31.55,14.12 -31.55,31.54 0,17.43 14.13,31.55 31.55,31.55 17.42,0 31.55,-14.12 31.55,-31.55"
         style="fill:#fcd9d9;fill-opacity:1;fill-rule:nonzero;stroke:none"
         id="path276" /><path
         d="m 3523.1,3076.21 c 0,-15.36 -12.45,-27.81 -27.81,-27.81 -15.36,0 -27.8,12.45 -27.8,27.81 0,15.35 12.44,27.8 27.8,27.8 15.36,0 27.81,-12.45 27.81,-27.8"
         style="fill:#fcd9d9;fill-opacity:1;fill-rule:nonzero;stroke:none"
         id="path278" /><path
         d="m 780.836,1444.05 c 0,-18.47 -14.973,-33.45 -33.441,-33.45 -18.469,0 -33.442,14.98 -33.442,33.45 0,18.47 14.973,33.44 33.442,33.44 18.468,0 33.441,-14.97 33.441,-33.44"
         style="fill:#fcd9d9;fill-opacity:1;fill-rule:nonzero;stroke:none"
         id="path280" /><path
         d="m 667.719,1770.27 c 0,-11.16 -9.047,-20.21 -20.207,-20.21 -11.16,0 -20.211,9.05 -20.211,20.21 0,11.16 9.051,20.21 20.211,20.21 11.16,0 20.207,-9.05 20.207,-20.21"
         style="fill:#fcd9d9;fill-opacity:1;fill-rule:nonzero;stroke:none"
         id="path282" /><path
         d="m 1318.01,3664 c 0,-22.12 -17.93,-40.05 -40.06,-40.05 -22.12,0 -40.05,17.93 -40.05,40.05 0,22.13 17.93,40.06 40.05,40.06 22.13,0 40.06,-17.93 40.06,-40.06"
         style="fill:#fcd9d9;fill-opacity:1;fill-rule:nonzero;stroke:none"
         id="path284" /><path
         d="m 1146.44,3610.76 c 0,-11.06 -8.97,-20.03 -20.04,-20.03 -11.05,0 -20.02,8.97 -20.02,20.03 0,11.06 8.97,20.03 20.02,20.03 11.07,0 20.04,-8.97 20.04,-20.03"
         style="fill:#fcd9d9;fill-opacity:1;fill-rule:nonzero;stroke:none"
         id="path286" /></g></g></svg>
