<svg xmlns="http://www.w3.org/2000/svg" width="16.882" height="7.971" viewBox="0 0 16.882 7.971">
  <g id="icon1" transform="translate(0)">
    <g id="Group_101" data-name="Group 101" transform="translate(9.093)">
      <path id="Path_128" data-name="Path 128" d="M423.97,342.8a3.643,3.643,0,0,1,2.462.777c1.215.7,2.077,1.219,3.12,1.041.809-.137,1.163-.836.809-1.37a.933.933,0,0,1-.789,1.223c-.662.119-1.629-.459-2.9-1.17a3.627,3.627,0,0,0-2.748-.634c-.662.18-1.086.672-.94,1.242A1.138,1.138,0,0,1,423.97,342.8Z" transform="translate(-422.833 -342.466)" fill="#fff"/>
      <path id="Path_129" data-name="Path 129" d="M429.017,344.651a5.6,5.6,0,0,1-2.667-1.033l-.1-.061a3.631,3.631,0,0,0-2.379-.762,1.01,1.01,0,0,0-.881.987.124.124,0,0,1-.108.124.122.122,0,0,1-.137-.092c-.157-.612.265-1.185,1.028-1.393a3.789,3.789,0,0,1,2.841.646l.249.14c1.124.631,1.988,1.121,2.567,1.016a.856.856,0,0,0,.615-.36.976.976,0,0,0,.076-.705.124.124,0,0,1,.222-.1.9.9,0,0,1,.082.873,1.252,1.252,0,0,1-.973.688A2.546,2.546,0,0,1,429.017,344.651Zm-4.009-1.985a8.38,8.38,0,0,1,1.361.676l.1.061a6.688,6.688,0,0,0,2.19.973,11.88,11.88,0,0,1-1.927-.953l-.248-.14A5.851,5.851,0,0,0,425.008,342.666Z" transform="translate(-422.708 -342.339)" fill="#fff"/>
    </g>
    <g id="Group_102" data-name="Group 102">
      <path id="Path_130" data-name="Path 130" d="M411.182,342.8a3.644,3.644,0,0,0-2.463.777c-1.215.7-2.076,1.219-3.12,1.041-.809-.137-1.164-.836-.809-1.37a.934.934,0,0,0,.789,1.223c.662.119,1.629-.459,2.9-1.17a3.628,3.628,0,0,1,2.748-.634c.662.18,1.087.672.94,1.242A1.139,1.139,0,0,0,411.182,342.8Z" transform="translate(-404.529 -342.466)" fill="#fff"/>
      <path id="Path_131" data-name="Path 131" d="M405.884,344.651a2.534,2.534,0,0,1-.431-.037,1.253,1.253,0,0,1-.973-.688.9.9,0,0,1,.081-.873.122.122,0,0,1,.156-.044.124.124,0,0,1,.067.148.985.985,0,0,0,.079.707.852.852,0,0,0,.613.358c.579.1,1.444-.385,2.57-1.017l.245-.138a3.788,3.788,0,0,1,2.842-.646c.762.208,1.184.781,1.027,1.393a.122.122,0,0,1-.136.092.126.126,0,0,1-.109-.124,1.01,1.01,0,0,0-.881-.987,3.637,3.637,0,0,0-2.379.762l-.1.06A5.593,5.593,0,0,1,405.884,344.651Zm4.011-1.985a5.839,5.839,0,0,0-1.482.617l-.245.138a11.874,11.874,0,0,1-1.93.954,6.68,6.68,0,0,0,2.191-.973l.1-.06A8.354,8.354,0,0,1,409.9,342.666Z" transform="translate(-404.404 -342.339)" fill="#fff"/>
    </g>
    <g id="Group_107" data-name="Group 107" transform="translate(4.279 1.69)">
      <g id="Group_103" data-name="Group 103" transform="translate(5.246 0.23)">
        <path id="Path_132" data-name="Path 132" d="M424.435,348.544c-.857-.531-1.038-1.268-.695-1.824s1.088-.724,1.944-.193a3.721,3.721,0,0,1,1.159,2.115A3.722,3.722,0,0,1,424.435,348.544Z" transform="translate(-423.577 -346.204)" fill="#fff"/>
      </g>
      <g id="Group_104" data-name="Group 104" transform="translate(0 0.202)">
        <path id="Path_133" data-name="Path 133" d="M415.419,348.477c.832-.569.979-1.314.61-1.855s-1.12-.672-1.952-.1a3.727,3.727,0,0,0-1.061,2.164A3.723,3.723,0,0,0,415.419,348.477Z" transform="translate(-413.017 -346.149)" fill="#fff"/>
      </g>
      <g id="Group_105" data-name="Group 105" transform="translate(2.881 1.919)">
        <path id="Path_134" data-name="Path 134" d="M421.65,351.46c0-1.2-.633-1.853-1.417-1.854s-1.417.65-1.417,1.854a4.449,4.449,0,0,0,1.417,2.508A4.449,4.449,0,0,0,421.65,351.46Z" transform="translate(-418.816 -349.606)" fill="#fff"/>
      </g>
      <g id="Group_106" data-name="Group 106" transform="translate(3.523)">
        <path id="Path_135" data-name="Path 135" d="M420.109,346.455a.713.713,0,1,1,.713.713A.713.713,0,0,1,420.109,346.455Z" transform="translate(-420.109 -345.742)" fill="#fff"/>
      </g>
    </g>
  </g>
</svg>
