<svg xmlns="http://www.w3.org/2000/svg" xmlns:xlink="http://www.w3.org/1999/xlink" width="83" height="83" viewBox="0 0 83 83">
  <defs>
    <linearGradient id="linear-gradient" x1="0.5" x2="0.5" y2="1" gradientUnits="objectBoundingBox">
      <stop offset="0" stop-color="#ff4495"/>
      <stop offset="1" stop-color="#ff6d6d"/>
    </linearGradient>
  </defs>
  <g id="notification1" transform="translate(-1073 -1782)">
    <g id="Rectangle_15" data-name="Rectangle 15" transform="translate(1073 1782)" fill="#fff" stroke="#dbe2e9" stroke-width="1">
      <rect width="83" height="83" rx="5" stroke="none"/>
      <rect x="0.5" y="0.5" width="82" height="82" rx="4.5" fill="none"/>
    </g>
    <g id="cloud-computing" transform="translate(1095 1804)">
      <path id="Path_7272" data-name="Path 7272" d="M246.748,172.51a.748.748,0,0,0,.748-.748v-2.1a.748.748,0,1,0-1.5,0v2.1A.748.748,0,0,0,246.748,172.51Zm0,0" transform="translate(-227.598 -156.283)" fill="url(#linear-gradient)"/>
      <path id="Path_7273" data-name="Path 7273" d="M28,29.609h3.079A7.212,7.212,0,0,0,31.3,15.188,12.22,12.22,0,0,0,23,6.556a.748.748,0,0,0-.433,1.432A10.726,10.726,0,0,1,29.778,15.3a7.192,7.192,0,0,0-3.59,1.793A.748.748,0,1,0,27.2,18.2a5.7,5.7,0,0,1,3.548-1.505l.11-.005c.074,0,.148-.005.222-.005a5.716,5.716,0,1,1,0,11.432H28v-2.92a.748.748,0,0,0-1.5,0v2.92H19.9v-2.92a.748.748,0,0,0-1.5,0v2.92H11.791v-2.92a.748.748,0,0,0-1.5,0v2.92H5.384a3.884,3.884,0,0,1-1.46-7.484.748.748,0,0,0,.449-.857,3.883,3.883,0,0,1,3.791-4.739,4.019,4.019,0,0,1,.414.023.748.748,0,0,0,.781-.486,10.8,10.8,0,0,1,6.976-6.582A.748.748,0,1,0,15.9,6.556a12.309,12.309,0,0,0-7.744,6.981A5.377,5.377,0,0,0,2.813,19.5,5.38,5.38,0,0,0,5.384,29.609H10.3v5.117l-2.6,2.623a2.847,2.847,0,1,0,1.058,1.058l2.823-2.845a.748.748,0,0,0,.217-.527V29.609H18.4v9.75a2.543,2.543,0,1,0,1.5,0v-9.75h6.611v5.426a.748.748,0,0,0,.217.527l2.822,2.844a2.842,2.842,0,1,0,1.058-1.058L28,34.726ZM6.284,41.163A1.346,1.346,0,1,1,7.63,39.816,1.348,1.348,0,0,1,6.284,41.163ZM19.15,42.836A1.047,1.047,0,1,1,20.2,41.789,1.048,1.048,0,0,1,19.15,42.836Zm13.818-3.972a1.346,1.346,0,1,1-.952-.394A1.337,1.337,0,0,1,32.967,38.864Zm0,0" transform="translate(0 -6.036)" fill="url(#linear-gradient)"/>
      <path id="Path_7274" data-name="Path 7274" d="M250.748,1.5A.748.748,0,0,0,251.5.75v0a.748.748,0,1,0-.748.752Zm0,0" transform="translate(-231.299)" fill="url(#linear-gradient)"/>
    </g>
  </g>
</svg>
