<svg xmlns="http://www.w3.org/2000/svg" xmlns:xlink="http://www.w3.org/1999/xlink" width="54.633" height="63" viewBox="0 0 54.633 63">
  <defs>
    <linearGradient id="linear-gradient" x1="0.5" x2="0.5" y2="1" gradientUnits="objectBoundingBox">
      <stop offset="0" stop-color="#ff4495"/>
      <stop offset="1" stop-color="#ff6d6d"/>
    </linearGradient>
  </defs>
  <g id="services3" transform="translate(0)">
    <path id="Path_7267" data-name="Path 7267" d="M54.33,9.741,46.19,6.725a1.23,1.23,0,1,0-.855,2.308l7.337,2.718V26.5a35.465,35.465,0,0,1-24.856,33.98A35.465,35.465,0,0,1,2.961,26.5V11.751L27.817,2.543l7.132,2.642A1.23,1.23,0,1,0,35.8,2.877l-7.56-2.8a1.233,1.233,0,0,0-.855,0L1.3,9.741a1.23,1.23,0,0,0-.8,1.154V26.5A38.115,38.115,0,0,0,27.456,62.946a1.223,1.223,0,0,0,.721,0A38.115,38.115,0,0,0,55.133,26.5V10.895a1.231,1.231,0,0,0-.8-1.154Zm0,0" transform="translate(-0.5 0)" fill="url(#linear-gradient)"/>
    <path id="Path_7268" data-name="Path 7268" d="M69.464,50.3l-20.18,7.849a1.23,1.23,0,0,0-.784,1.147V70.537a32.035,32.035,0,0,0,20.983,30.191,1.233,1.233,0,0,0,.855,0A32.035,32.035,0,0,0,91.32,70.537V59.294a1.23,1.23,0,0,0-.784-1.147L70.356,50.3a1.229,1.229,0,0,0-.892,0Zm19.4,20.238A29.451,29.451,0,0,1,69.91,98.259,29.451,29.451,0,0,1,50.961,70.537v-10.4l18.949-7.37,18.949,7.37Zm0,0" transform="translate(-42.594 -44.036)" fill="url(#linear-gradient)"/>
    <path id="Path_7269" data-name="Path 7269" d="M136.438,119v2.512H136.3a3.8,3.8,0,0,0-3.8,3.8V137.34a3.8,3.8,0,0,0,3.8,3.8h14.55a3.8,3.8,0,0,0,3.8-3.8V125.311a3.8,3.8,0,0,0-3.8-3.8h-.138V119a7.137,7.137,0,0,0-14.273,0Zm15.75,6.311V137.34a1.34,1.34,0,0,1-1.338,1.338H136.3a1.34,1.34,0,0,1-1.338-1.338V125.311a1.34,1.34,0,0,1,1.338-1.338h14.55a1.34,1.34,0,0,1,1.338,1.338ZM148.25,119v2.512H138.9V119a4.676,4.676,0,1,1,9.352,0Zm0,0" transform="translate(-116.258 -98.099)" fill="url(#linear-gradient)"/>
    <path id="Path_7270" data-name="Path 7270" d="M196.191,229.977a3.691,3.691,0,0,0-1.23,7.171v.964a1.23,1.23,0,1,0,2.461,0v-.964a3.691,3.691,0,0,0-1.23-7.171Zm0,4.922a1.23,1.23,0,1,1,1.23-1.23A1.232,1.232,0,0,1,196.191,234.9Zm0,0" transform="translate(-168.875 -201.679)" fill="url(#linear-gradient)"/>
    <path id="Path_7271" data-name="Path 7271" d="M317.367,40.859a1.231,1.231,0,1,0-.87-.36A1.239,1.239,0,0,0,317.367,40.859Zm0,0" transform="translate(-277.299 -33.674)" fill="url(#linear-gradient)"/>
  </g>
</svg>
