<svg xmlns="http://www.w3.org/2000/svg" xmlns:xlink="http://www.w3.org/1999/xlink" width="59.354" height="63" viewBox="0 0 59.354 63">
  <defs>
    <linearGradient id="linear-gradient" x1="0.5" x2="0.5" y2="1" gradientUnits="objectBoundingBox">
      <stop offset="0" stop-color="#ff4495"/>
      <stop offset="1" stop-color="#ff6d6d"/>
    </linearGradient>
  </defs>
  <g id="services2" transform="translate(0)">
    <path id="Path_7264" data-name="Path 7264" d="M59.855,15.384a5.164,5.164,0,0,0-8.894-3.575L30.793.165a1.23,1.23,0,0,0-1.23,0L9.394,11.809A5.166,5.166,0,1,0,4.438,20.4V43.682a1.231,1.231,0,0,0,.615,1.066l20.162,11.64a5.168,5.168,0,1,0,9.923,0L55.3,44.748a1.231,1.231,0,0,0,.615-1.066V20.4a5.176,5.176,0,0,0,3.938-5.018Zm-56.893,0a2.707,2.707,0,1,1,2.707,2.707,2.71,2.71,0,0,1-2.707-2.707ZM30.176,60.54a2.707,2.707,0,1,1,2.707-2.707A2.71,2.71,0,0,1,30.176,60.54ZM33.9,54.26a5.156,5.156,0,0,0-7.456,0L6.9,42.972V20.4a5.165,5.165,0,0,0,3.73-6.465L30.177,2.652,49.726,13.938a5.165,5.165,0,0,0,3.73,6.465V42.972ZM54.687,18.091a2.707,2.707,0,1,1,2.707-2.707A2.71,2.71,0,0,1,54.687,18.091Zm0,0" transform="translate(-0.501 -0.001)" fill="url(#linear-gradient)"/>
    <path id="Path_7265" data-name="Path 7265" d="M134.018,87.125l-16.242-9.377a1.23,1.23,0,0,0-1.23,0L100.3,87.125a1.231,1.231,0,0,0-.615,1.066v18.755a1.231,1.231,0,0,0,.615,1.066l16.242,9.378a1.23,1.23,0,0,0,1.23,0l16.242-9.378a1.231,1.231,0,0,0,.615-1.066V88.191A1.231,1.231,0,0,0,134.018,87.125ZM117.16,80.234l13.781,7.956L117.16,96.147l-13.781-7.957Zm1.23,33.957v-5.549a1.23,1.23,0,1,0-2.46,0v5.549l-13.781-7.957V90.322l14.4,8.312a1.23,1.23,0,0,0,1.23,0l14.4-8.312v15.913Zm0,0" transform="translate(-87.483 -68.037)" fill="url(#linear-gradient)"/>
    <path id="Path_7266" data-name="Path 7266" d="M232.9,275a1.231,1.231,0,1,0,.87.36A1.242,1.242,0,0,0,232.9,275Zm0,0" transform="translate(-203.22 -241.162)" fill="url(#linear-gradient)"/>
  </g>
</svg>
