<svg id="services1" xmlns="http://www.w3.org/2000/svg" xmlns:xlink="http://www.w3.org/1999/xlink" width="60.539" height="63" viewBox="0 0 60.539 63">
  <defs>
    <linearGradient id="linear-gradient" x1="0.5" x2="0.5" y2="1" gradientUnits="objectBoundingBox">
      <stop offset="0" stop-color="#ff4495"/>
      <stop offset="1" stop-color="#ff6d6d"/>
    </linearGradient>
  </defs>
  <path id="Path_7259" data-name="Path 7259" d="M132.3,10.111,115.072.166a1.231,1.231,0,0,0-1.23,0L96.615,10.111A1.231,1.231,0,0,0,96,11.177v8.874a1.231,1.231,0,0,0,.615,1.066l4.228,2.441L96.615,26A1.23,1.23,0,0,0,96,27.064v8.874A1.231,1.231,0,0,0,96.615,37l4.228,2.441-4.228,2.441A1.231,1.231,0,0,0,96,42.951v8.874a1.231,1.231,0,0,0,.615,1.066l17.227,9.946a1.23,1.23,0,0,0,1.23,0L132.3,52.89a1.231,1.231,0,0,0,.615-1.066V42.951a1.231,1.231,0,0,0-.615-1.066l-4.228-2.441L132.3,37a1.231,1.231,0,0,0,.615-1.066V27.064A1.23,1.23,0,0,0,132.3,26l-4.228-2.441,4.228-2.441a1.23,1.23,0,0,0,.615-1.066V11.178a1.231,1.231,0,0,0-.615-1.066ZM114.457,2.652l14.766,8.525L114.457,19.7,99.691,11.178Zm-16,10.656,14.766,8.525v6.032L98.461,19.34Zm0,15.887,14.766,8.525v6.032L98.461,35.227Zm0,15.887,14.766,8.525v6.032L98.461,51.114Zm17.227,14.557V53.608l14.766-8.525v6.032Zm13.535-16.688-14.766,8.525L99.691,42.951l3.613-2.086,10.538,6.084a1.23,1.23,0,0,0,1.23,0l10.537-6.084Zm-13.535.8V37.721L130.453,29.2v6.032Zm13.535-16.688-14.766,8.525L99.691,27.064l3.613-2.086,10.538,6.084a1.23,1.23,0,0,0,1.23,0l10.538-6.084Zm-13.535.8V21.834l14.766-8.525V19.34Zm0,0" transform="translate(-84.187 -0.001)" fill="url(#linear-gradient)"/>
  <path id="Path_7260" data-name="Path 7260" d="M449.23,259.891a1.231,1.231,0,1,0,.87.36A1.236,1.236,0,0,0,449.23,259.891Zm0,0" transform="translate(-392.875 -227.912)" fill="url(#linear-gradient)"/>
  <path id="Path_7261" data-name="Path 7261" d="M432.367,74.68a4.184,4.184,0,1,0-5.414,4V89.493a1.23,1.23,0,0,0,2.461,0V78.679A4.191,4.191,0,0,0,432.367,74.68ZM428.184,76.4a1.723,1.723,0,1,1,1.723-1.723A1.724,1.724,0,0,1,428.184,76.4Zm0,0" transform="translate(-371.828 -61.822)" fill="url(#linear-gradient)"/>
  <path id="Path_7262" data-name="Path 7262" d="M25.23,454.871A1.231,1.231,0,0,0,24,456.1v4.569a1.23,1.23,0,0,0,2.461,0V456.1A1.23,1.23,0,0,0,25.23,454.871Zm0,0" transform="translate(-21.047 -398.901)" fill="url(#linear-gradient)"/>
  <path id="Path_7263" data-name="Path 7263" d="M4.184,265.48a4.184,4.184,0,0,0-1.23,8.182v10.207a1.23,1.23,0,0,0,2.461,0V273.662a4.184,4.184,0,0,0-1.23-8.182Zm0,5.906a1.723,1.723,0,1,1,1.723-1.723A1.724,1.724,0,0,1,4.184,271.386Zm0,0" transform="translate(0 -232.814)" fill="url(#linear-gradient)"/>
</svg>
